<?xml version="1.0" standalone="no"?>
<!DOCTYPE svg PUBLIC "-//W3C//DTD SVG 20010904//EN"
 "http://www.w3.org/TR/2001/REC-SVG-20010904/DTD/svg10.dtd">
<svg version="1.0" xmlns="http://www.w3.org/2000/svg"
 width="2400.000000pt" height="2400.000000pt" viewBox="0 0 2400.000000 2400.000000"
 preserveAspectRatio="xMidYMid meet">
<metadata>
Created by potrace 1.11, written by Peter Selinger 2001-2013
</metadata>
<g transform="translate(0.000000,2400.000000) scale(0.100000,-0.100000)"
fill="#000000" stroke="none">
<path d="M9369 23996 c-2 -2 -49 -7 -103 -11 -55 -4 -109 -8 -120 -10 -12 -2
-43 -6 -71 -10 -97 -13 -121 -16 -200 -30 -117 -21 -137 -25 -165 -31 -14 -3
-34 -8 -45 -10 -198 -39 -521 -133 -823 -240 -164 -58 -531 -205 -637 -254
-22 -10 -65 -30 -95 -43 -152 -69 -213 -98 -430 -206 -223 -111 -483 -246
-505 -261 -5 -4 -46 -27 -90 -50 -307 -166 -677 -394 -995 -613 -177 -122
-414 -298 -575 -425 -100 -79 -402 -330 -441 -367 -6 -5 -49 -44 -95 -85 -155
-139 -223 -204 -429 -410 -302 -302 -478 -494 -745 -815 -27 -33 -54 -65 -60
-72 -22 -26 -34 -42 -128 -162 -53 -69 -105 -135 -114 -148 -10 -14 -35 -48
-56 -76 -21 -29 -44 -59 -51 -68 -34 -42 -216 -303 -323 -464 -143 -216 -152
-231 -289 -460 -59 -99 -118 -197 -131 -217 -12 -21 -23 -40 -23 -42 0 -2 -23
-43 -50 -91 -28 -48 -50 -88 -50 -90 0 -1 -21 -40 -46 -85 -213 -386 -494
-1007 -683 -1513 -118 -315 -287 -829 -325 -987 -2 -8 -16 -55 -29 -105 -21
-74 -98 -373 -113 -437 -2 -10 -6 -26 -8 -35 -6 -24 -47 -204 -51 -223 -12
-57 -85 -432 -89 -460 -3 -19 -10 -60 -16 -90 -6 -30 -13 -73 -15 -95 -3 -22
-7 -51 -10 -65 -7 -36 -18 -113 -41 -280 -2 -19 -6 -48 -9 -65 -6 -44 -14
-107 -20 -178 -3 -34 -8 -71 -10 -82 -2 -11 -7 -56 -10 -100 -4 -44 -8 -96
-10 -115 -2 -19 -7 -78 -10 -130 -4 -52 -8 -115 -10 -140 -13 -139 -20 -391
-19 -750 0 -418 5 -577 29 -915 7 -109 36 -408 49 -510 4 -27 9 -70 12 -95 5
-45 10 -79 19 -147 3 -21 10 -69 16 -108 5 -38 11 -81 14 -95 2 -14 6 -43 10
-65 3 -23 7 -52 10 -65 3 -13 7 -42 11 -65 10 -69 83 -448 100 -515 2 -8 12
-57 23 -107 42 -191 145 -589 203 -778 48 -160 170 -535 194 -600 12 -33 45
-121 72 -195 97 -262 211 -536 360 -865 35 -78 303 -615 322 -645 5 -8 42 -73
81 -145 39 -71 103 -184 143 -250 39 -66 76 -129 82 -140 48 -89 349 -551 472
-725 147 -206 317 -432 459 -610 46 -57 227 -276 232 -280 4 -3 30 -34 60 -70
29 -36 86 -100 125 -144 39 -43 82 -90 95 -105 263 -290 720 -741 945 -933 22
-18 53 -46 70 -62 77 -72 468 -394 591 -486 57 -43 66 -50 98 -77 34 -28 294
-216 430 -310 886 -615 1852 -1115 2856 -1477 163 -59 512 -176 566 -189 11
-3 72 -20 135 -40 122 -36 126 -38 235 -67 39 -10 97 -26 130 -35 33 -10 67
-18 75 -20 8 -2 74 -17 145 -35 137 -33 336 -77 395 -86 19 -3 38 -8 41 -10 3
-2 21 -6 40 -9 19 -3 59 -10 89 -16 30 -5 93 -17 140 -25 47 -8 94 -16 105
-18 96 -18 280 -45 340 -51 33 -4 67 -8 75 -10 22 -6 67 -11 250 -31 25 -3 61
-7 80 -9 48 -6 122 -13 200 -20 36 -2 96 -7 133 -11 79 -6 135 -10 347 -20
296 -16 1173 -9 1405 11 22 2 87 6 145 10 58 3 123 8 145 10 22 2 76 6 120 10
44 3 98 8 120 10 22 2 65 7 95 10 94 9 164 16 195 20 53 6 209 26 235 30 77
11 109 16 145 20 22 3 49 7 60 9 20 4 85 14 140 22 17 2 41 6 55 9 14 2 41 7
60 9 19 3 45 8 56 10 12 2 39 7 60 11 22 3 82 14 134 24 52 11 113 22 135 27
22 4 45 9 50 10 6 2 24 6 40 9 17 3 58 12 93 20 34 8 74 17 90 20 140 26 578
143 857 231 294 92 702 238 851 305 22 10 63 27 91 38 112 44 566 256 647 302
10 6 53 29 95 51 325 172 677 389 971 598 82 58 359 267 376 284 6 6 26 22 44
36 18 14 38 30 44 35 6 6 56 48 111 95 97 81 133 113 279 250 139 130 323 318
466 476 95 104 283 331 380 459 298 391 554 804 756 1222 132 274 144 299 144
315 0 8 4 18 8 23 17 19 129 308 185 477 64 191 146 477 172 598 2 8 19 94 38
190 33 162 42 212 51 287 5 36 18 123 21 144 2 9 6 52 10 95 4 43 9 87 11 97
6 36 18 323 18 447 0 132 -13 440 -18 449 -2 4 -7 38 -10 78 -4 40 -8 78 -11
85 -2 7 -6 37 -10 67 -3 30 -8 64 -10 75 -5 23 -13 66 -21 111 -14 76 -68 282
-103 390 -67 208 -147 389 -237 542 -24 41 -44 77 -44 79 0 2 -34 52 -76 111
-382 538 -903 951 -1519 1205 -145 60 -407 148 -482 162 -10 2 -36 9 -58 15
-22 6 -58 13 -80 17 -22 3 -43 8 -46 10 -4 2 -24 6 -44 10 -21 3 -47 8 -59 10
-11 2 -37 7 -56 10 -19 3 -46 7 -60 10 -14 2 -52 7 -85 10 -33 3 -66 7 -72 9
-55 18 -566 26 -733 12 -491 -42 -937 -165 -1341 -367 -289 -145 -578 -361
-764 -571 -89 -99 -102 -116 -172 -210 -307 -417 -476 -747 -530 -1034 -12
-68 -9 -247 6 -300 36 -128 133 -246 247 -300 177 -84 306 -76 459 30 71 48
255 228 400 390 187 210 262 284 366 362 309 232 683 299 1049 188 414 -127
721 -416 858 -806 29 -82 36 -110 48 -189 3 -19 10 -55 14 -80 9 -49 6 -304
-5 -360 -6 -31 -30 -148 -40 -190 -19 -84 -78 -231 -150 -375 -172 -341 -462
-683 -820 -970 -28 -22 -55 -44 -62 -50 -107 -90 -398 -281 -588 -385 -76 -43
-373 -190 -381 -190 -3 0 -20 -6 -37 -14 -362 -163 -873 -315 -1247 -372 -19
-3 -60 -9 -90 -14 -76 -12 -114 -17 -195 -25 -38 -4 -77 -9 -86 -10 -137 -25
-849 -25 -999 -1 -14 3 -52 7 -85 10 -33 4 -71 8 -85 10 -14 3 -52 7 -85 11
-32 4 -62 8 -65 10 -3 2 -29 6 -58 9 -30 3 -57 8 -60 10 -4 2 -34 7 -67 11
-32 3 -62 8 -66 11 -4 2 -24 6 -45 10 -22 3 -55 9 -74 14 -19 5 -51 12 -70 15
-19 3 -96 21 -171 40 -787 196 -1470 514 -2048 953 -69 53 -131 101 -137 106
-6 6 -35 31 -64 56 -308 259 -610 603 -842 960 -121 187 -277 493 -363 709
-56 143 -131 364 -139 408 -3 12 -7 26 -10 31 -3 5 -7 19 -10 33 -3 13 -7 33
-10 44 -15 58 -54 225 -60 255 -3 19 -8 46 -11 60 -11 57 -35 198 -40 245 -4
28 -8 61 -11 75 -2 14 -6 59 -10 100 -3 41 -8 86 -10 100 -21 127 -21 721 1
925 2 22 7 68 10 102 3 34 8 72 10 85 2 13 6 43 9 68 4 25 8 56 10 70 3 14 7
41 10 60 68 449 266 944 519 1295 28 39 53 72 56 75 3 3 24 28 46 55 41 51
213 227 275 280 61 53 179 145 185 145 3 0 84 -62 180 -137 227 -181 310 -241
548 -401 394 -263 833 -507 1184 -656 139 -59 188 -79 188 -75 0 1 10 -3 23
-10 97 -52 580 -199 742 -226 19 -3 42 -8 50 -10 24 -7 97 -19 175 -30 22 -3
54 -7 70 -9 17 -3 57 -7 90 -11 33 -3 78 -8 100 -10 171 -18 568 -24 770 -11
155 9 294 23 325 31 8 2 42 7 74 10 104 11 303 53 491 105 159 44 277 89 440
169 217 106 376 220 509 363 204 219 292 431 310 743 3 63 -14 165 -34 204
-25 50 -57 76 -112 95 -70 23 -146 34 -366 51 -32 3 -79 7 -107 10 -27 3 -75
7 -105 10 -335 32 -876 150 -1215 267 -583 201 -929 466 -998 765 -23 99 -6
204 40 245 17 15 65 31 126 42 15 3 35 7 45 10 9 3 35 8 57 11 22 3 49 8 60
10 42 7 172 25 215 30 137 14 523 17 2650 20 1284 2 2405 6 2490 9 393 12 650
22 810 31 238 13 286 16 329 20 25 2 84 6 131 9 89 6 148 12 240 21 30 3 78 8
106 10 28 2 68 6 90 9 41 6 175 22 259 31 28 4 61 8 75 10 14 2 43 7 65 10
108 16 338 56 405 70 41 9 89 19 105 22 80 13 387 97 523 143 848 283 1289
736 1379 1415 10 76 9 387 -1 485 -11 108 -52 324 -87 459 -41 159 -146 482
-180 559 -16 34 -43 92 -60 130 -49 107 -253 511 -307 608 -27 49 -66 121 -87
159 -165 302 -456 766 -684 1088 -140 198 -437 593 -478 635 -7 8 -26 30 -41
50 -15 21 -29 39 -32 42 -3 3 -27 32 -55 65 -77 92 -85 101 -201 235 -60 69
-134 152 -164 184 -30 33 -86 94 -125 135 -103 111 -508 514 -606 602 -95 87
-123 112 -195 178 -102 94 -133 119 -304 262 -238 197 -472 381 -625 489 -16
12 -66 47 -110 79 -234 168 -721 484 -915 594 -19 10 -87 50 -150 86 -206 121
-293 168 -565 305 -526 267 -1186 530 -1460 582 -22 4 -47 9 -55 10 -87 18
-278 25 -375 13 -367 -44 -647 -273 -866 -708 -101 -202 -179 -403 -317 -816
-143 -429 -214 -596 -313 -740 -60 -87 -81 -110 -148 -163 -137 -109 -325
-107 -546 5 -73 37 -211 126 -257 165 -15 13 -55 45 -89 73 -34 27 -67 54 -73
60 -6 6 -49 44 -96 85 -47 41 -87 77 -90 80 -3 3 -52 46 -110 95 -58 50 -109
95 -115 101 -5 6 -82 73 -170 150 -88 76 -165 143 -171 149 -6 5 -35 30 -64
55 -29 25 -58 50 -64 55 -6 6 -81 69 -166 141 -631 529 -1118 850 -1575 1039
-49 20 -99 41 -110 46 -46 21 -298 99 -396 123 -110 27 -294 60 -389 71 -30 3
-71 8 -90 11 -41 5 -536 15 -541 10z m8621 -3581 c19 -4 43 -11 53 -16 9 -5
17 -7 17 -4 0 2 28 -6 63 -19 333 -126 550 -364 638 -701 24 -92 33 -276 18
-370 -50 -315 -251 -592 -529 -730 -168 -83 -274 -109 -455 -109 -132 0 -221
15 -332 55 -410 149 -667 522 -657 954 9 359 219 687 544 850 53 27 144 62
185 71 11 3 47 11 80 18 62 15 305 15 375 1z"/>
</g>
</svg>
